<svg width="24" height="21" viewBox="0 0 24 21" fill="none" xmlns="http://www.w3.org/2000/svg">
<path d="M11.35 7.26923V7.11923H11.2H2.4C1.15871 7.11923 0.15 6.10289 0.15 4.84615V2.42308C0.15 1.16633 1.15871 0.15 2.4 0.15H21.6C22.8413 0.15 23.85 1.16633 23.85 2.42308V4.84615C23.85 6.10289 22.8413 7.11923 21.6 7.11923H12.8H12.65V7.26923V9.69231V9.84231H12.8H17.6C19.725 9.84231 21.45 11.5819 21.45 13.7308V13.8808H21.6C22.8413 13.8808 23.85 14.8971 23.85 16.1538V18.5769C23.85 19.8337 22.8413 20.85 21.6 20.85H19.2C17.9587 20.85 16.95 19.8337 16.95 18.5769V16.1538C16.95 14.8971 17.9587 13.8808 19.2 13.8808H20H20.15V13.7308C20.15 12.3111 19.0097 11.1577 17.6 11.1577H12.8H12.65V11.3077V13.7308V13.8808H12.8H13.2C14.4413 13.8808 15.45 14.8971 15.45 16.1538V18.5769C15.45 19.8337 14.4413 20.85 13.2 20.85H10.8C9.55871 20.85 8.55 19.8337 8.55 18.5769V16.1538C8.55 14.8971 9.55871 13.8808 10.8 13.8808H11.2H11.35V13.7308V11.3077V11.1577H11.2H6.8C5.39033 11.1577 4.25 12.3111 4.25 13.7308V13.8808H4.4H4.8C6.04129 13.8808 7.05 14.8971 7.05 16.1538V18.5769C7.05 19.8337 6.04129 20.85 4.8 20.85H2.4C1.15871 20.85 0.15 19.8337 0.15 18.5769V16.1538C0.15 14.8971 1.15871 13.8808 2.4 13.8808H2.8H2.95V13.7308C2.95 11.5819 4.67507 9.84231 6.8 9.84231H11.2H11.35V9.69231V7.26923Z" fill="#D2303F" stroke="#F5F5F5" stroke-width="0.3"/>
</svg>
