<svg width="23" height="24" viewBox="0 0 23 24" fill="none" xmlns="http://www.w3.org/2000/svg">
<path d="M5.64906 17.2511H9.47998V23.9986L5.64906 23.9997V17.2511ZM15.1206 2.13467V24H11.2283V16.3702C11.2272 15.8847 10.8367 15.4912 10.3547 15.4891H4.7755C4.54312 15.4891 4.32044 15.5812 4.15583 15.747C3.99123 15.9118 3.89979 16.1372 3.90087 16.3702V23.9989L0 24V5.28866C0.0032275 4.34034 0.626111 3.50692 1.53088 3.24465L12.418 0.0823041C13.057 -0.101937 13.7455 0.0270311 14.2759 0.430195C14.8074 0.833354 15.1194 1.46521 15.1204 2.13497L15.1206 2.13467ZM6.59371 11.701C6.59694 11.4669 6.50549 11.2415 6.34089 11.0757C6.17629 10.9099 5.95251 10.8178 5.72015 10.8199H4.14516C3.91278 10.8199 3.6901 10.9121 3.52549 11.0779C3.36089 11.2426 3.26837 11.4669 3.26837 11.701C3.26837 11.9352 3.36089 12.1595 3.52549 12.3253C3.69009 12.49 3.91277 12.5832 4.14516 12.5822H5.72015C5.95145 12.5832 6.17521 12.49 6.33875 12.3253C6.50335 12.1595 6.59479 11.9352 6.59371 11.701ZM6.59371 7.78959C6.59479 7.5555 6.50334 7.33117 6.33874 7.16642C6.17522 7.0006 5.95147 6.90848 5.72015 6.90848H4.14515C3.66212 6.90848 3.27159 7.30298 3.27159 7.7896C3.27159 8.27621 3.66212 8.67071 4.14515 8.67071H5.72015C5.95145 8.6718 6.17521 8.57859 6.33874 8.41386C6.50334 8.24804 6.59479 8.0237 6.59371 7.78959ZM11.8501 11.701C11.8501 11.4669 11.7587 11.2426 11.5941 11.0779C11.4305 10.9121 11.2079 10.8199 10.9755 10.8199H9.40157C9.1692 10.8199 8.94544 10.9121 8.78083 11.0779C8.61623 11.2426 8.52371 11.4669 8.52371 11.701C8.52371 11.9352 8.61623 12.1595 8.78083 12.3253C8.94543 12.49 9.16921 12.5832 9.40157 12.5822H10.9755C11.4574 12.5811 11.848 12.1877 11.8501 11.701ZM11.8501 7.78959C11.848 7.30406 11.4574 6.91064 10.9755 6.90848H9.40157C8.91853 6.90848 8.52693 7.30298 8.52693 7.78959C8.52693 8.27621 8.91853 8.67071 9.40157 8.67071H10.9755C11.4574 8.66963 11.848 8.27621 11.8501 7.78959ZM22.1853 10.8199L16.8686 9.27874V23.9998H22.6662L22.6673 11.455C22.663 11.1592 22.4672 10.9012 22.1853 10.8199Z" fill="#D2303F"/>
</svg>
