<svg width="20" height="19" viewBox="0 0 20 19" fill="none" xmlns="http://www.w3.org/2000/svg">
<path fill-rule="evenodd" clip-rule="evenodd" d="M1.48105 19H18.5072C19.325 18.9991 19.9865 18.3322 19.9883 17.5089V5.37011H0V17.5089C0.00178558 18.3322 0.66329 18.9991 1.48105 19ZM15.1317 4.57592e-05H15.936C16.2083 4.57592e-05 16.4297 0.222041 16.4297 0.497075V2.90123C16.4297 3.17536 16.2083 3.39826 15.936 3.39826H15.1317C14.8585 3.39826 14.638 3.17537 14.638 2.90123V0.497075C14.638 0.222055 14.8585 4.57592e-05 15.1317 4.57592e-05ZM4.07086 4.57592e-05H4.87968C5.15196 4.57592e-05 5.37337 0.222041 5.37337 0.497075V2.90123C5.37337 3.17536 5.15197 3.39826 4.87968 3.39826H4.06996C3.79768 3.39826 3.57719 3.17537 3.57719 2.90123V0.497075C3.57719 0.222055 3.79769 4.57592e-05 4.06996 4.57592e-05H4.07086ZM9.60128 4.57592e-05H10.4083H10.4074C10.5395 -0.00175189 10.6672 0.0494772 10.7609 0.142949C10.8556 0.236421 10.9082 0.364047 10.9082 0.497073V2.90123C10.9082 3.17535 10.6868 3.39826 10.4145 3.39826H9.60126C9.32809 3.39826 9.10757 3.17537 9.10757 2.90123V0.497073C9.10757 0.222052 9.32809 4.57592e-05 9.60128 4.57592e-05ZM11.5367 14.7255H13.166C13.432 14.73 13.6463 14.9457 13.6507 15.2126V16.8628C13.6507 17.1369 13.4293 17.3598 13.157 17.3598H11.5367C11.2644 17.3598 11.043 17.1369 11.043 16.8628V15.2126C11.043 14.9385 11.2644 14.7165 11.5367 14.7165V14.7255ZM6.96595 14.7255H8.59518C8.86835 14.7255 9.08887 14.9475 9.08887 15.2225V16.8628C9.08887 17.1369 8.86837 17.3598 8.59518 17.3598H6.97755C6.70438 17.3598 6.48386 17.1369 6.48386 16.8628V15.2126C6.48386 14.9385 6.70437 14.7165 6.97755 14.7165L6.96595 14.7255ZM2.40682 14.7255H4.05212C4.3244 14.7255 4.54581 14.9475 4.54581 15.2225V16.8628C4.54045 17.1333 4.32084 17.3508 4.05212 17.3508H2.41843C2.14882 17.3508 1.92921 17.1333 1.92473 16.8628V15.2126C1.92473 14.9385 2.14524 14.7165 2.41843 14.7165L2.40682 14.7255ZM11.5251 10.7494H13.1543C13.4248 10.7485 13.6453 10.9651 13.6507 11.2374V12.8777C13.6507 13.1518 13.4293 13.3747 13.157 13.3747H11.5367C11.2644 13.3747 11.043 13.1518 11.043 12.8777V11.2374C11.043 10.9624 11.2644 10.7404 11.5367 10.7404L11.5251 10.7494ZM16.0959 10.7494H17.7251C17.9956 10.7485 18.2161 10.9651 18.2215 11.2374V12.8777C18.2215 13.1518 18.0001 13.3747 17.7278 13.3747H16.0959C15.8236 13.3747 15.6022 13.1518 15.6022 12.8777V11.2374C15.6022 10.9624 15.8236 10.7404 16.0959 10.7404V10.7494ZM6.9776 10.7494H8.60683C8.87912 10.7494 9.10052 10.9723 9.10052 11.2464V12.8867C9.10052 13.1617 8.87913 13.3837 8.60683 13.3837H6.9776C6.70443 13.3837 6.48391 13.1617 6.48391 12.8867V11.2374C6.48391 10.9624 6.70441 10.7404 6.9776 10.7404V10.7494ZM2.41847 10.7494H4.05216C4.32444 10.7494 4.54585 10.9723 4.54585 11.2464V12.8867C4.5405 13.1581 4.32088 13.3747 4.05216 13.3747H2.41847C2.1453 13.3747 1.92478 13.1518 1.92478 12.8777V11.2374C1.92478 10.9624 2.14528 10.7404 2.41847 10.7404V10.7494ZM11.5367 6.76247H13.166C13.4356 6.76697 13.6507 6.98806 13.6507 7.2595V8.89975C13.6507 9.17388 13.4293 9.39678 13.157 9.39678H11.5367C11.2644 9.39678 11.043 9.17389 11.043 8.89975V7.2595C11.043 6.98448 11.2644 6.76247 11.5367 6.76247ZM16.1075 6.76247H17.7367C18.0064 6.76697 18.2215 6.98806 18.2215 7.2595V8.89975C18.2215 9.17388 18.0001 9.39678 17.7278 9.39678H16.0959C15.8236 9.39678 15.6022 9.17389 15.6022 8.89975V7.2595C15.6022 6.98448 15.8236 6.76247 16.0959 6.76247H16.1075ZM6.98926 6.76247H8.61849C8.89077 6.76247 9.11218 6.98447 9.11218 7.2595V8.89975C9.11218 9.17388 8.89078 9.39678 8.61849 9.39678H6.97765C6.70447 9.39678 6.48396 9.17389 6.48396 8.89975V7.2595C6.48396 6.98448 6.70446 6.76247 6.97765 6.76247H6.98926ZM2.43013 6.76247H4.05223C4.32451 6.76247 4.54592 6.98447 4.54592 7.2595V8.89975C4.54592 9.17388 4.32452 9.39678 4.05223 9.39678H2.41854C2.14537 9.39678 1.92485 9.17389 1.92485 8.89975V7.2595C1.92485 6.98448 2.14535 6.76247 2.41854 6.76247H2.43013ZM20 4.85528V3.40556C20.0009 3.0065 19.8438 2.62453 19.5634 2.34321C19.2831 2.06188 18.9028 1.90462 18.5073 1.90731H16.9442V2.89417C16.9433 3.45321 16.4933 3.90528 15.939 3.90707H15.132C14.5767 3.90527 14.1276 3.45318 14.1259 2.89417V1.90731H11.4156V2.89417C11.4138 3.45321 10.963 3.90528 10.4077 3.90707H9.60157C9.04629 3.90527 8.59726 3.45318 8.59548 2.89417V1.90731H5.88066V2.89417C5.87977 3.45321 5.42982 3.90528 4.87545 3.90707H4.07022C3.51583 3.90527 3.0659 3.45318 3.06501 2.89417V1.90731H1.4813C0.663564 1.90821 0.00203401 2.57509 0.000251408 3.39838V4.8481L20 4.85528Z" fill="#D2303F"/>
</svg>
