<svg width="176" height="109" viewBox="0 0 176 109" fill="none" xmlns="http://www.w3.org/2000/svg">
<mask id="mask0_1_26" style="mask-type:luminance" maskUnits="userSpaceOnUse" x="0" y="0" width="176" height="109">
<path d="M176 0H0V109H176V0Z" fill="white"/>
</mask>
<g mask="url(#mask0_1_26)">
<mask id="mask1_1_26" style="mask-type:luminance" maskUnits="userSpaceOnUse" x="0" y="-36" width="176" height="176">
<path d="M175.857 -36H0.142578V139.191H175.857V-36Z" fill="white"/>
</mask>
<g mask="url(#mask1_1_26)">
<mask id="mask2_1_26" style="mask-type:luminance" maskUnits="userSpaceOnUse" x="32" y="13" width="34" height="74">
<path d="M42.7987 61.8861C42.7987 62.9968 42.7987 64.1075 42.7987 65.2217C42.8474 66.4159 42.8028 67.6119 42.6652 68.7991C42.63 69.0094 42.5914 69.2231 42.5351 69.4298C42.2505 70.6527 41.639 71.8159 40.5179 72.4641C39.1122 73.27 37.1196 73.3121 35.5698 72.9231C33.4613 72.3906 32.5651 70.6737 32.2559 68.7641C32.2559 78.4241 41.1083 86.2832 51.5844 86.4759C51.855 86.3183 52.1221 86.1571 52.3822 85.9889C55.4839 83.9771 57.8841 81.0565 59.2526 77.6288C60.5142 74.4999 60.943 71.1117 60.943 67.755C60.943 64.6016 60.943 61.4726 60.943 58.3367C60.943 52.9011 60.943 47.469 60.943 42.0404C60.943 37.559 60.8832 33.0741 61.2944 28.5997C61.4986 25.7167 61.968 22.8584 62.6966 20.0609C63.3467 17.7344 64.2675 15.2712 65.986 13.4912C53.8441 18.2179 44.4364 37.6361 42.7917 61.8721" fill="white"/>
</mask>
<g mask="url(#mask2_1_26)">
<path d="M65.9897 13.5049H32.2666V86.4756H65.9897V13.5049Z" fill="url(#paint0_linear_1_26)"/>
</g>
<mask id="mask3_1_26" style="mask-type:luminance" maskUnits="userSpaceOnUse" x="14" y="32" width="38" height="58">
<path d="M14.0497 39.6236C14.0497 49.2696 14.0497 64.6129 14.0497 64.6129C14.0497 67.8609 13.997 71.0985 14.7174 74.2939C15.5081 77.8503 17.1774 81.2525 19.8131 83.8173C22.4488 86.3821 25.8647 88.0219 29.4317 88.8874C33.4275 89.8177 37.5555 90.0454 41.6298 89.5601C45.1054 89.1677 48.5635 88.2357 51.5928 86.4767C41.1062 86.27 32.2642 78.418 32.2642 68.7649C32.1671 68.1707 32.1189 67.5695 32.1201 66.9674C32.1201 64.704 32.1201 62.437 32.1201 60.1735V32.4723C32.1294 32.3363 32.1212 32.1997 32.0955 32.0658L14.0497 39.6236Z" fill="white"/>
</mask>
<g mask="url(#mask3_1_26)">
<path d="M51.6046 32.0658H14.0088V90.0121H51.6046V32.0658Z" fill="url(#paint1_linear_1_26)"/>
</g>
<mask id="mask4_1_26" style="mask-type:luminance" maskUnits="userSpaceOnUse" x="0" y="-36" width="176" height="176">
<path d="M175.857 -36H0.142578V139.191H175.857V-36Z" fill="white"/>
</mask>
<g mask="url(#mask4_1_26)">
<g style="mix-blend-mode:multiply">
<mask id="mask5_1_26" style="mask-type:luminance" maskUnits="userSpaceOnUse" x="32" y="69" width="24" height="18">
<path d="M55.3809 69.4585H32.2815V86.4766H55.3809V69.4585Z" fill="white"/>
</mask>
<g mask="url(#mask5_1_26)">
<mask id="mask6_1_26" style="mask-type:luminance" maskUnits="userSpaceOnUse" x="32" y="69" width="24" height="18">
<path d="M55.3853 83.5476C54.4853 84.4732 53.4846 85.2958 52.4017 86.0003C52.1416 86.1685 51.8746 86.3297 51.604 86.4873C41.3704 86.2876 32.6936 78.8105 32.2754 69.4693C32.43 69.9283 38.0212 85.5869 55.3783 83.5582" fill="white"/>
</mask>
<g mask="url(#mask6_1_26)">
<path d="M43.5471 57.9366L23.7578 78.1763L44.1334 97.98L63.9226 77.7404L43.5471 57.9366Z" fill="url(#paint2_linear_1_26)"/>
</g>
</g>
</g>
</g>
<mask id="mask7_1_26" style="mask-type:luminance" maskUnits="userSpaceOnUse" x="42" y="13" width="25" height="49">
<path d="M63.2266 13.8761C58.6861 14.8887 54.2581 16.8228 50.6911 19.8326C45.2862 24.3876 42.784 31.0449 42.791 38.0035V43.8654C42.791 49.072 42.791 54.2799 42.791 59.4889V61.889C44.4322 37.6531 53.8399 18.2349 65.9853 13.5082C66.0169 13.4697 66.0556 13.4311 66.0943 13.3926C65.1282 13.4968 64.1694 13.6595 63.2231 13.8796" fill="white"/>
</mask>
<g mask="url(#mask7_1_26)">
<path d="M66.0989 13.3882H42.7852V61.8847H66.0989V13.3882Z" fill="url(#paint3_linear_1_26)"/>
</g>
<path d="M52.6606 39.7276C52.7883 39.7276 52.9122 39.7148 53.0323 39.6892C53.155 39.6637 53.2763 39.6318 53.3964 39.5934V40.4634C53.2712 40.5196 53.1154 40.5656 52.9288 40.6014C52.7449 40.6397 52.543 40.6589 52.3233 40.6589C52.0678 40.6589 51.8378 40.618 51.6334 40.5363C51.4316 40.4519 51.2719 40.3076 51.1543 40.1032C51.0394 39.8962 50.9819 39.6088 50.9819 39.2408V37.1751H50.4223V36.6807L51.0662 36.2897L51.4035 35.3852H52.1508V36.2974H53.3504V37.1751H52.1508V39.2408C52.1508 39.4044 52.1968 39.527 52.2888 39.6088C52.3833 39.688 52.5073 39.7276 52.6606 39.7276Z" fill="white"/>
<path d="M55.9189 34.6185V35.8334C55.9189 36.0455 55.9112 36.2474 55.8959 36.439C55.8831 36.6306 55.8729 36.766 55.8652 36.8452H55.9265C56.0185 36.697 56.1271 36.577 56.2523 36.485C56.3801 36.393 56.5206 36.3253 56.6739 36.2818C56.8272 36.2384 56.992 36.2167 57.1683 36.2167C57.4775 36.2167 57.747 36.2716 57.977 36.3815C58.2069 36.4888 58.3858 36.6587 58.5136 36.8912C58.6413 37.1212 58.7052 37.4201 58.7052 37.7881V40.582H57.5362V38.0793C57.5362 37.7727 57.48 37.5415 57.3676 37.3856C57.2552 37.2298 57.0814 37.1519 56.8464 37.1519C56.6113 37.1519 56.4261 37.2068 56.2906 37.3167C56.1552 37.424 56.0594 37.5837 56.0032 37.7957C55.947 38.0052 55.9189 38.262 55.9189 38.5661V40.582H54.7499V34.6185H55.9189Z" fill="white"/>
<mask id="mask8_1_26" style="mask-type:luminance" maskUnits="userSpaceOnUse" x="0" y="0" width="176" height="103">
<path d="M176 0H0V103H176V0Z" fill="white"/>
</mask>
<g mask="url(#mask8_1_26)">
<path d="M160.448 63.1334C160.445 64.2177 160.223 65.2902 159.794 66.2868C159.299 67.386 158.533 68.342 157.566 69.0654C156.302 69.985 154.869 70.6481 153.349 71.017C151.202 71.5455 148.995 71.7894 146.784 71.7423C145.023 71.7576 143.262 71.6616 141.513 71.455C140.249 71.2983 138.995 71.0643 137.76 70.7542C136.927 70.5445 136.106 70.2931 135.3 70.0009C134.877 69.8125 134.426 69.6942 133.964 69.6505C133.777 69.6501 133.596 69.7202 133.458 69.8467C133.311 69.9764 133.159 70.1165 132.998 70.2777L132.418 70.1341L135.999 61.5392L136.48 61.7809C136.404 62.1139 136.372 62.4556 136.386 62.797C136.386 63.1194 136.684 63.4978 137.282 63.8797C138.027 64.3512 138.825 64.7323 139.661 65.015C140.725 65.4024 141.819 65.7024 142.933 65.9119C144.16 66.1495 145.408 66.2669 146.658 66.2623C149.078 66.2623 150.854 65.9809 151.986 65.4179C153.117 64.8538 153.683 64.0374 153.683 62.9652C153.683 62.3871 153.187 61.9771 152.203 61.7354C150.984 61.4549 149.746 61.2594 148.499 61.1502C147.012 61.0101 145.415 60.8501 143.709 60.6702C142.082 60.5125 140.475 60.1909 138.912 59.7102C137.546 59.3048 136.283 58.6118 135.208 57.6779C134.224 56.795 133.733 55.5803 133.736 54.034C133.721 52.869 134.012 51.7203 134.579 50.7018C135.167 49.68 135.979 48.8043 136.955 48.1405C138.087 47.3819 139.339 46.8193 140.659 46.4762C142.237 46.0592 143.865 45.8565 145.498 45.8736C147.037 45.8679 148.575 45.9732 150.098 46.1889C151.518 46.3945 152.777 46.6281 153.876 46.8897C154.973 47.149 155.89 47.3767 156.635 47.5904C157.153 47.7605 157.69 47.8653 158.234 47.9023C158.509 47.9166 158.781 47.8429 159.011 47.692C159.206 47.5425 159.383 47.3709 159.538 47.1805L160.044 47.3907L156.709 54.097L156.122 53.8097V53.2771C156.122 52.9863 155.806 52.6955 155.18 52.3837C154.41 52.0329 153.607 51.7594 152.783 51.5673C151.713 51.3054 150.629 51.103 149.536 50.9611C148.381 50.8043 147.216 50.7236 146.05 50.7194C143.941 50.7194 142.472 50.9599 141.643 51.4411C140.803 51.9247 140.388 52.4432 140.388 52.9863C140.389 53.2558 140.472 53.5187 140.627 53.7394C140.783 53.96 141.002 54.1277 141.256 54.2197C141.981 54.5331 142.749 54.7363 143.534 54.8223C144.471 54.9531 145.537 55.0571 146.732 55.1342C147.927 55.2183 149.153 55.3374 150.408 55.4846C151.646 55.6445 152.876 55.8703 154.091 56.1608C155.215 56.4254 156.293 56.8565 157.289 57.4397C158.21 57.9931 158.989 58.7539 159.562 59.6611C160.177 60.7052 160.479 61.9027 160.434 63.1124" fill="#791416"/>
<path d="M127.861 53.2841C127.081 51.7114 125.964 50.3286 124.589 49.2337C123.165 48.1092 121.54 47.2649 119.799 46.746C115.99 45.6154 111.933 45.6154 108.125 46.746C106.384 47.2634 104.758 48.1078 103.335 49.2337C101.958 50.3266 100.84 51.7099 100.063 53.2841C99.2645 55.0459 98.8516 56.957 98.8516 58.8903C98.8516 60.8235 99.2645 62.7346 100.063 64.4964C100.841 66.0716 101.958 67.4559 103.335 68.5503C104.751 69.67 106.381 70.4923 108.125 70.968C111.948 71.9958 115.976 71.9958 119.799 70.968C121.542 70.4909 123.171 69.6687 124.589 68.5503C125.964 67.4542 127.081 66.0703 127.861 64.4964C128.659 62.7346 129.072 60.8235 129.072 58.8903C129.072 56.957 128.659 55.0459 127.861 53.2841ZM121.254 61.9071C120.834 62.762 120.235 63.5171 119.497 64.1215C118.749 64.729 117.896 65.1957 116.981 65.4985C115.012 66.1386 112.891 66.1386 110.922 65.4985C110.007 65.1949 109.154 64.7283 108.406 64.1215C107.669 63.5161 107.07 62.7612 106.649 61.9071C106.218 60.9581 105.995 59.9284 105.995 58.8868C105.995 57.8451 106.218 56.8154 106.649 55.8665C107.07 55.0113 107.669 54.2552 108.406 53.6485C109.154 53.0428 110.007 52.5775 110.922 52.275C112.888 51.6211 115.014 51.6211 116.981 52.275C117.896 52.5767 118.749 53.0421 119.497 53.6485C120.234 54.2545 120.834 55.0107 121.254 55.8665C121.683 56.816 121.904 57.8455 121.904 58.8868C121.904 59.9281 121.683 60.9575 121.254 61.9071Z" fill="#791416"/>
<path d="M77.9126 70.6913C77.8398 70.6185 77.7828 70.5314 77.7453 70.4355C77.7078 70.3396 77.6906 70.237 77.6948 70.1342V62.2646H86.4102C87.7787 62.2895 89.1404 62.0687 90.4305 61.6129C91.5061 61.2266 92.494 60.6311 93.3368 59.861C94.1021 59.1496 94.6967 58.2753 95.0764 57.3032C95.4648 56.3276 95.6628 55.287 95.6598 54.2374C95.6628 53.1877 95.4648 52.1471 95.0764 51.1715C94.6928 50.1943 94.099 49.3129 93.3368 48.5892C92.4969 47.8153 91.5082 47.2193 90.4305 46.8373C89.1404 46.3815 87.7787 46.1607 86.4102 46.1856H69.0742V46.7637C69.6892 46.8303 70.0688 46.9319 70.2128 47.079C70.2849 47.1518 70.3414 47.2383 70.3789 47.3335C70.4164 47.4287 70.434 47.5305 70.4307 47.6327V70.1307C70.4341 70.2334 70.4165 70.3358 70.379 70.4315C70.3416 70.5273 70.285 70.6145 70.2128 70.6878C70.0688 70.8315 69.6892 70.9366 69.0742 70.9997V71.5673H79.0513V70.9892C78.4363 70.9261 78.0567 70.821 77.9126 70.6773M77.6948 51.5815H85.0537C86.4102 51.5815 87.4036 51.7905 88.0338 52.2087C88.664 52.6268 88.978 53.303 88.9756 54.2374C88.9756 55.2675 88.6617 56.008 88.0338 56.4588C87.4059 56.9096 86.4125 57.135 85.0537 57.135H77.6948V51.5815Z" fill="#791416"/>
<path d="M161.949 39.7842H82.3643V41.431H161.949V39.7842Z" fill="#791416"/>
<path d="M145.812 76.1968H66.2275V77.8436H145.812V76.1968Z" fill="#791416"/>
</g>
</g>
</g>
<defs>
<linearGradient id="paint0_linear_1_26" x1="32.2666" y1="50.1374" x2="65.9897" y2="50.1374" gradientUnits="userSpaceOnUse">
<stop stop-color="#ED2024"/>
<stop offset="1" stop-color="#231F20"/>
</linearGradient>
<linearGradient id="paint1_linear_1_26" x1="14.0474" y1="60.4924" x2="51.6046" y2="60.4924" gradientUnits="userSpaceOnUse">
<stop stop-color="#ED2024"/>
<stop offset="1" stop-color="#231F20"/>
</linearGradient>
<linearGradient id="paint2_linear_1_26" x1="44.6998" y1="77.6415" x2="35.36" y2="87.251" gradientUnits="userSpaceOnUse">
<stop stop-color="white"/>
<stop offset="0.12" stop-color="#ECECEC"/>
<stop offset="0.36" stop-color="#BAB9B9"/>
<stop offset="0.71" stop-color="#6C696A"/>
<stop offset="1" stop-color="#231F20"/>
</linearGradient>
<linearGradient id="paint3_linear_1_26" x1="42.7922" y1="38.3004" x2="66.0989" y2="38.3004" gradientUnits="userSpaceOnUse">
<stop stop-color="#ED2024"/>
<stop offset="1" stop-color="#231F20"/>
</linearGradient>
</defs>
</svg>
