<svg width="16" height="22" viewBox="0 0 16 22" fill="none" xmlns="http://www.w3.org/2000/svg">
<path d="M13.8625 8.6662V5.5714C13.8625 2.50053 11.3639 0 8.29203 0H7.55039C4.47856 0 1.97994 2.50053 1.97994 5.5714V8.6662C0.867959 8.79156 0 9.72364 0 10.8701V19.7822C0 21.0138 0.997148 22.01 2.22779 22.01H13.6156C14.8462 22.01 15.8434 21.0138 15.8434 19.7822V10.8701C15.8434 9.72459 14.9754 8.79156 13.8625 8.6662ZM9.86335 18.475H7.92073H5.98002L7.00014 15.8194C6.39438 15.4903 5.98002 14.8567 5.98002 14.1189C5.98002 13.0462 6.84894 12.1773 7.92073 12.1773C8.99252 12.1773 9.86239 13.0462 9.86239 14.1189C9.86239 14.8567 9.44612 15.4912 8.84132 15.8194L9.86335 18.475ZM11.6347 8.64036H4.20774V5.5714C4.20774 3.7283 5.70729 2.22971 7.55039 2.22971H8.29203C10.1361 2.22971 11.6347 3.7283 11.6347 5.5714V8.64036Z" fill="#9A9A9A"/>
</svg>
