<svg width="20" height="20" viewBox="0 0 20 20" fill="none" xmlns="http://www.w3.org/2000/svg">
<path opacity="0.5" d="M19.1667 8.16665H0.833374V16.4166C0.833374 17.146 1.12311 17.8455 1.63883 18.3612C2.15456 18.8769 2.85403 19.1666 3.58337 19.1666H16.4167C17.1461 19.1666 17.8455 18.8769 18.3613 18.3612C18.877 17.8455 19.1667 17.146 19.1667 16.4166V8.16665ZM5.41671 6.33331C5.17359 6.33331 4.94043 6.23674 4.76853 6.06483C4.59662 5.89292 4.50004 5.65976 4.50004 5.41665V1.74998C4.50004 1.50686 4.59662 1.27371 4.76853 1.1018C4.94043 0.92989 5.17359 0.833313 5.41671 0.833313C5.65982 0.833313 5.89298 0.92989 6.06489 1.1018C6.2368 1.27371 6.33337 1.50686 6.33337 1.74998V5.41665C6.33337 5.65976 6.2368 5.89292 6.06489 6.06483C5.89298 6.23674 5.65982 6.33331 5.41671 6.33331ZM14.5834 6.33331C14.3403 6.33331 14.1071 6.23674 13.9352 6.06483C13.7633 5.89292 13.6667 5.65976 13.6667 5.41665V1.74998C13.6667 1.50686 13.7633 1.27371 13.9352 1.1018C14.1071 0.92989 14.3403 0.833313 14.5834 0.833313C14.8265 0.833313 15.0596 0.92989 15.2316 1.1018C15.4035 1.27371 15.5 1.50686 15.5 1.74998V5.41665C15.5 5.65976 15.4035 5.89292 15.2316 6.06483C15.0596 6.23674 14.8265 6.33331 14.5834 6.33331Z" fill="#D2303F"/>
</svg>
