<svg width="20" height="22" viewBox="0 0 20 22" fill="none" xmlns="http://www.w3.org/2000/svg">
<path d="M17.9345 14.4002C17.0696 13.0157 15.8468 11.8803 14.4012 11.1308C13.7572 11.5462 13.0538 11.8804 12.3078 12.1172C11.5147 12.3692 10.6706 12.5106 9.79344 12.5249H9.52245C8.64526 12.5115 7.80111 12.3693 7.00804 12.1172C6.26211 11.8804 5.55864 11.5471 4.91467 11.1308C3.46904 11.8794 2.24532 13.0157 1.3814 14.4002C0.507039 15.8001 0 17.4568 0 19.228C0 19.9804 0.299326 20.666 0.795052 21.176C1.30117 21.6878 1.98668 22 2.74018 22H16.5779C17.3314 22 18.0169 21.6878 18.5126 21.1865C19.0093 20.6852 19.3171 19.9919 19.3171 19.229C19.3171 17.4577 18.81 15.8012 17.9357 14.4012L17.9345 14.4002ZM12.9415 1.375C12.1011 0.525165 10.9397 0 9.65837 0C8.3761 0 7.21479 0.526118 6.37528 1.375C5.53491 2.22484 5.01559 3.3993 5.01559 4.69505C5.01559 5.99176 5.53585 7.16614 6.37528 8.01608C7.21566 8.86496 8.37704 9.39108 9.65837 9.39108C10.9406 9.39108 12.1019 8.86496 12.9415 8.01608C13.7818 7.16624 14.3011 5.99178 14.3011 4.69505C14.3011 3.39834 13.7809 2.22396 12.9415 1.375Z" fill="#9A9A9A"/>
</svg>
