<svg width="34" height="34" viewBox="0 0 34 34" fill="none" xmlns="http://www.w3.org/2000/svg">
<rect x="8.26074" y="9.0697" width="16.0676" height="16.0676" rx="4.83333" fill="white" stroke="#00961B"/>
<mask id="path-2-inside-1_28_3581" fill="white">
<path d="M24.9906 21.6626C26.2584 22.4236 27.9349 22.0158 28.4062 20.6143C28.8024 19.4362 29.0206 18.2003 29.049 16.9475C29.0978 14.7979 28.5861 12.6727 27.5643 10.7808C26.5425 8.88903 25.0457 7.29582 23.2214 6.15795C21.397 5.02009 19.3078 4.37677 17.1594 4.29129C15.011 4.20582 12.8773 4.68113 10.9683 5.67046C9.0593 6.65979 7.44074 8.12906 6.27186 9.93372C5.10299 11.7384 4.42407 13.8163 4.30189 15.9629C4.23069 17.214 4.35002 18.4633 4.65134 19.6692C5.00981 21.1038 6.64862 21.6434 7.97293 20.9855C9.29723 20.3277 9.7778 18.7039 9.65932 17.2299C9.63366 16.9107 9.62977 16.589 9.64808 16.2672C9.71744 15.0487 10.1028 13.8692 10.7663 12.8448C11.4298 11.8204 12.3486 10.9864 13.4322 10.4248C14.5158 9.86319 15.727 9.59338 16.9465 9.6419C18.1661 9.69042 19.352 10.0556 20.3875 10.7015C21.4231 11.3474 22.2727 12.2518 22.8527 13.3256C23.4328 14.3995 23.7232 15.6059 23.6956 16.8261C23.6882 17.1484 23.6588 17.4687 23.6079 17.7849C23.3727 19.2448 23.7227 20.9016 24.9906 21.6626Z"/>
</mask>
<path d="M24.9906 21.6626C26.2584 22.4236 27.9349 22.0158 28.4062 20.6143C28.8024 19.4362 29.0206 18.2003 29.049 16.9475C29.0978 14.7979 28.5861 12.6727 27.5643 10.7808C26.5425 8.88903 25.0457 7.29582 23.2214 6.15795C21.397 5.02009 19.3078 4.37677 17.1594 4.29129C15.011 4.20582 12.8773 4.68113 10.9683 5.67046C9.0593 6.65979 7.44074 8.12906 6.27186 9.93372C5.10299 11.7384 4.42407 13.8163 4.30189 15.9629C4.23069 17.214 4.35002 18.4633 4.65134 19.6692C5.00981 21.1038 6.64862 21.6434 7.97293 20.9855C9.29723 20.3277 9.7778 18.7039 9.65932 17.2299C9.63366 16.9107 9.62977 16.589 9.64808 16.2672C9.71744 15.0487 10.1028 13.8692 10.7663 12.8448C11.4298 11.8204 12.3486 10.9864 13.4322 10.4248C14.5158 9.86319 15.727 9.59338 16.9465 9.6419C18.1661 9.69042 19.352 10.0556 20.3875 10.7015C21.4231 11.3474 22.2727 12.2518 22.8527 13.3256C23.4328 14.3995 23.7232 15.6059 23.6956 16.8261C23.6882 17.1484 23.6588 17.4687 23.6079 17.7849C23.3727 19.2448 23.7227 20.9016 24.9906 21.6626Z" fill="white" stroke="#00961B" stroke-width="2" mask="url(#path-2-inside-1_28_3581)"/>
</svg>
