<svg width="21" height="21" viewBox="0 0 21 21" fill="none" xmlns="http://www.w3.org/2000/svg">
<path d="M17.1791 5.35495C17.3944 5.35519 17.6014 5.43762 17.7579 5.58539C17.9145 5.73317 18.0087 5.93514 18.0213 6.15003C18.0339 6.36493 17.964 6.57653 17.8258 6.7416C17.6877 6.90668 17.4917 7.01277 17.2779 7.03819L17.1791 7.0441H17.1107L16.3345 16.3344C16.3346 16.9807 16.0876 17.6026 15.6443 18.0728C15.2009 18.543 14.5946 18.826 13.9494 18.8639L13.8008 18.8682H7.0442C5.69457 18.8682 4.59156 17.8133 4.51724 16.5456L4.51301 16.4045L3.73347 7.0441H3.6659C3.45064 7.04386 3.24359 6.96144 3.08706 6.81366C2.93053 6.66589 2.83633 6.46392 2.82372 6.24903C2.8111 6.03413 2.88102 5.82253 3.01918 5.65745C3.15735 5.49238 3.35333 5.38629 3.56709 5.36087L3.6659 5.35495H17.1791Z" fill="#D80000"/>
<path d="M12.1118 1.97665C12.5598 1.97665 12.9894 2.15462 13.3062 2.47139C13.623 2.78817 13.8009 3.21781 13.8009 3.6658C13.8007 3.88107 13.7182 4.08812 13.5705 4.24465C13.4227 4.40118 13.2207 4.49537 13.0058 4.50799C12.7909 4.52061 12.5793 4.45069 12.4143 4.31252C12.2492 4.17436 12.1431 3.97838 12.1177 3.76462L12.1118 3.6658H8.73346L8.72755 3.76462C8.70213 3.97838 8.59604 4.17436 8.43097 4.31252C8.26589 4.45069 8.05429 4.52061 7.83939 4.50799C7.6245 4.49537 7.42253 4.40118 7.27476 4.24465C7.12698 4.08812 7.04455 3.88107 7.04432 3.6658C7.04418 3.23965 7.20513 2.8292 7.49489 2.51672C7.78466 2.20424 8.18183 2.01284 8.60678 1.98088L8.73346 1.97665H12.1118Z" fill="#D80000"/>
<path d="M17.1791 5.35495C17.3944 5.35519 17.6014 5.43762 17.7579 5.58539C17.9145 5.73317 18.0087 5.93514 18.0213 6.15003C18.0339 6.36493 17.964 6.57653 17.8258 6.7416C17.6877 6.90668 17.4917 7.01277 17.2779 7.03819L17.1791 7.0441H17.1107L16.3345 16.3344C16.3346 16.9807 16.0876 17.6026 15.6443 18.0728C15.2009 18.543 14.5946 18.826 13.9494 18.8639L13.8008 18.8682H7.0442C5.69457 18.8682 4.59156 17.8133 4.51724 16.5456L4.51301 16.4045L3.73347 7.0441H3.6659C3.45064 7.04386 3.24359 6.96144 3.08706 6.81366C2.93053 6.66589 2.83633 6.46392 2.82372 6.24903C2.8111 6.03413 2.88102 5.82253 3.01918 5.65745C3.15735 5.49238 3.35333 5.38629 3.56709 5.36087L3.6659 5.35495H17.1791Z" stroke="#D80000"/>
<path d="M12.1118 1.97665C12.5598 1.97665 12.9894 2.15462 13.3062 2.47139C13.623 2.78817 13.8009 3.21781 13.8009 3.6658C13.8007 3.88107 13.7182 4.08812 13.5705 4.24465C13.4227 4.40118 13.2207 4.49537 13.0058 4.50799C12.7909 4.52061 12.5793 4.45069 12.4143 4.31252C12.2492 4.17436 12.1431 3.97838 12.1177 3.76462L12.1118 3.6658H8.73346L8.72755 3.76462C8.70213 3.97838 8.59604 4.17436 8.43097 4.31252C8.26589 4.45069 8.05429 4.52061 7.83939 4.50799C7.6245 4.49537 7.42253 4.40118 7.27476 4.24465C7.12698 4.08812 7.04455 3.88107 7.04432 3.6658C7.04418 3.23965 7.20513 2.8292 7.49489 2.51672C7.78466 2.20424 8.18183 2.01284 8.60678 1.98088L8.73346 1.97665H12.1118Z" stroke="#D80000"/>
</svg>
