<svg width="15" height="15" viewBox="0 0 15 15" fill="none" xmlns="http://www.w3.org/2000/svg">
<path d="M7.08333 0L7.31283 0.000708282L7.53808 0.00354175L7.97442 0.0155834L8.18621 0.0247917L8.59633 0.048875L8.98804 0.0814583C12.3774 0.410125 13.7565 1.78925 14.0852 5.17862L14.1178 5.57033L14.1419 5.98046C14.1454 6.04987 14.149 6.12071 14.1511 6.19225L14.1631 6.62858L14.1667 7.08333L14.1631 7.53808L14.1511 7.97442L14.1419 8.18621L14.1178 8.59633L14.0852 8.98804C13.7565 12.3774 12.3774 13.7565 8.98804 14.0852L8.59633 14.1178L8.18621 14.1419C8.11679 14.1454 8.04596 14.149 7.97442 14.1511L7.53808 14.1631L7.08333 14.1667L6.62858 14.1631L6.19225 14.1511L5.98046 14.1419L5.57033 14.1178L5.17862 14.0852C1.78925 13.7565 0.410125 12.3774 0.0814583 8.98804L0.048875 8.59633L0.0247917 8.18621C0.0213458 8.11563 0.0182763 8.04503 0.0155834 7.97442L0.00354175 7.53808C0.00141675 7.38933 0 7.23775 0 7.08333L0.000708282 6.85383L0.00354175 6.62858L0.0155834 6.19225L0.0247917 5.98046L0.048875 5.57033L0.0814583 5.17862C0.410125 1.78925 1.78925 0.410125 5.17862 0.0814583L5.57033 0.048875L5.98046 0.0247917C6.04987 0.0212501 6.12071 0.0177084 6.19225 0.0155834L6.62858 0.00354175C6.77733 0.00141675 6.92892 0 7.08333 0ZM9.20833 6.375H4.95833L4.87546 6.37996C4.69618 6.40128 4.53181 6.49026 4.41594 6.6287C4.30006 6.76715 4.24142 6.94461 4.252 7.12484C4.26258 7.30507 4.34158 7.47446 4.47286 7.5984C4.60414 7.72233 4.77779 7.79147 4.95833 7.79167H9.20833L9.29121 7.78671C9.47048 7.76538 9.63485 7.67641 9.75073 7.53796C9.8666 7.39952 9.92524 7.22205 9.91466 7.04182C9.90408 6.86159 9.82508 6.6922 9.6938 6.56827C9.56252 6.44433 9.38887 6.3752 9.20833 6.375Z" fill="#D2303F"/>
</svg>
