<svg width="13" height="13" viewBox="0 0 13 13" fill="none" xmlns="http://www.w3.org/2000/svg">
<path d="M4.22124 3.69715L0.499577 4.23673L0.433661 4.25015C0.333875 4.27664 0.242908 4.32914 0.170048 4.40228C0.0971879 4.47543 0.045046 4.5666 0.0189469 4.66649C-0.00715221 4.76638 -0.00627344 4.8714 0.0214934 4.97084C0.0492603 5.07028 0.10292 5.16057 0.176994 5.23248L2.87316 7.8569L2.23733 11.564L2.22974 11.6281C2.22364 11.7314 2.24507 11.8343 2.29184 11.9265C2.33861 12.0187 2.40905 12.0968 2.49594 12.1529C2.58283 12.2089 2.68305 12.2408 2.78633 12.2454C2.88962 12.2499 2.99226 12.227 3.08374 12.1788L6.41224 10.4288L9.73316 12.1788L9.79149 12.2056C9.88778 12.2436 9.99242 12.2552 10.0947 12.2393C10.1969 12.2235 10.2931 12.1807 10.3734 12.1154C10.4537 12.0501 10.5152 11.9646 10.5515 11.8677C10.5878 11.7708 10.5977 11.666 10.5802 11.564L9.94374 7.8569L12.6411 5.2319L12.6866 5.18232C12.7516 5.10226 12.7942 5.00641 12.8101 4.90453C12.826 4.80265 12.8146 4.69837 12.777 4.60232C12.7395 4.50628 12.6772 4.4219 12.5964 4.35778C12.5157 4.29366 12.4194 4.2521 12.3173 4.23732L8.59566 3.69715L6.93199 0.325482C6.88385 0.227794 6.80933 0.145533 6.71685 0.0880098C6.62438 0.030487 6.51765 0 6.40874 0C6.29984 0 6.19311 0.030487 6.10063 0.0880098C6.00816 0.145533 5.93363 0.227794 5.88549 0.325482L4.22124 3.69715Z" fill="#FACA0D"/>
</svg>
