<svg width="24" height="26" viewBox="0 0 24 26" fill="none" xmlns="http://www.w3.org/2000/svg">
<path d="M17.543 14.2994C18.8612 15.0667 19.9801 16.1414 20.7959 17.4224C20.7979 17.4255 20.8007 17.4281 20.8027 17.4312C21.7196 18.8745 22.25 20.5789 22.25 22.4019C22.25 22.9936 22.0074 23.5331 21.6094 23.9273L21.6084 23.9283C21.2099 24.3236 20.6616 24.5679 20.0596 24.5679H3.94141C3.34506 24.5679 2.79861 24.328 2.38672 23.9224C1.98441 23.5165 1.75004 22.9823 1.75 22.4009C1.75 20.5747 2.28226 18.8672 3.20215 17.4224L3.20312 17.4214C4.01759 16.1412 5.13645 15.066 6.4541 14.2994C7.02709 14.6209 7.6308 14.8957 8.26074 15.1148L8.61523 15.231C9.62955 15.5473 10.7078 15.725 11.8262 15.7418C11.8312 15.7418 11.8368 15.7427 11.8418 15.7427H12.1572C12.1624 15.7427 12.1676 15.7418 12.1729 15.7418C13.2899 15.7239 14.3686 15.5475 15.3838 15.231L15.3828 15.23C16.1411 14.9939 16.8643 14.6798 17.543 14.2994ZM12 1.43219C13.2193 1.43224 14.321 1.92179 15.1191 2.71344C15.9163 3.50425 16.4072 4.59351 16.4072 5.79645C16.4072 6.9998 15.9171 8.08892 15.1191 8.88043C14.3218 9.67124 13.2202 10.1616 12 10.1617C10.8572 10.1617 9.81688 9.73083 9.0332 9.02496L8.87988 8.88043C8.08268 8.08831 7.5918 6.99893 7.5918 5.79645C7.5918 4.59442 8.08199 3.50502 8.87988 2.71344C9.67725 1.92256 10.7797 1.43219 12 1.43219Z" stroke="#6A6A6A" stroke-width="2" stroke-linejoin="round"/>
</svg>
