<svg width="24" height="24" viewBox="0 0 24 24" fill="none" xmlns="http://www.w3.org/2000/svg">
<mask id="mask0_16_1872" style="mask-type:alpha" maskUnits="userSpaceOnUse" x="0" y="0" width="24" height="24">
<rect width="24" height="24" fill="#D9D9D9"/>
</mask>
<g mask="url(#mask0_16_1872)">
<path d="M16 17L18 19L22 15" stroke="#D2303F" stroke-width="1.5" stroke-linecap="round" stroke-linejoin="round"/>
<path d="M11.2656 2.75C13.2723 2.75025 14.9607 4.45408 14.9609 6.58203C14.9609 8.71031 13.2733 10.4148 11.2656 10.415C9.25895 10.415 7.5752 8.7118 7.5752 6.58203C7.57545 4.4525 9.25921 2.75 11.2656 2.75Z" stroke="#D2303F" stroke-width="1.5"/>
<path d="M8.84473 13.5779H13.6895C14.0529 13.5779 14.4006 13.6397 14.7305 13.7478C14.1412 14.1139 13.6203 14.5918 13.1953 15.158C12.4409 16.163 12.0336 17.3945 12.0312 18.6589V18.6619C12.0328 19.5673 12.243 20.4526 12.6357 21.2498H6.42676C5.53522 21.2497 4.75 20.4737 4.75 19.4949V18.6658C4.75 17.3827 5.15605 16.1289 5.87988 15.1687C6.55353 14.2753 7.51813 13.6592 8.62207 13.5857L8.84473 13.5779Z" stroke="#D2303F" stroke-width="1.5"/>
</g>
</svg>
