<svg width="24" height="24" viewBox="0 0 24 24" fill="none" xmlns="http://www.w3.org/2000/svg">
<path d="M4 4.49996C4 4.22382 4.22386 3.99996 4.5 3.99996H9.5C9.77614 3.99996 10 4.22382 10 4.49996V11.5C10 11.7761 9.77614 12 9.5 12H4.5C4.22386 12 4 11.7761 4 11.5V4.49996Z" stroke="#5A5A5A" stroke-width="1.7" stroke-linecap="round" stroke-linejoin="round"/>
<path d="M4 16.5C4 16.2238 4.22386 16 4.5 16H9.5C9.77614 16 10 16.2238 10 16.5V19.5C10 19.7761 9.77614 20 9.5 20H4.5C4.22386 20 4 19.7761 4 19.5V16.5Z" stroke="#5A5A5A" stroke-width="1.7" stroke-linecap="round" stroke-linejoin="round"/>
<path d="M14 12.5C14 12.2238 14.2239 12 14.5 12H19.5C19.7761 12 20 12.2238 20 12.5V19.5C20 19.7761 19.7761 20 19.5 20H14.5C14.2239 20 14 19.7761 14 19.5V12.5Z" stroke="#5A5A5A" stroke-width="1.7" stroke-linecap="round" stroke-linejoin="round"/>
<path d="M14 4.49996C14 4.22382 14.2239 3.99996 14.5 3.99996H19.5C19.7761 3.99996 20 4.22382 20 4.49996V7.49996C20 7.77611 19.7761 7.99996 19.5 7.99996H14.5C14.2239 7.99996 14 7.77611 14 7.49996V4.49996Z" stroke="#5A5A5A" stroke-width="1.7" stroke-linecap="round" stroke-linejoin="round"/>
</svg>
