<svg width="24" height="24" viewBox="0 0 24 24" fill="none" xmlns="http://www.w3.org/2000/svg">
<mask id="mask0_16_186" style="mask-type:alpha" maskUnits="userSpaceOnUse" x="0" y="0" width="24" height="24">
<rect width="24" height="24" fill="#777777"/>
</mask>
<g mask="url(#mask0_16_186)">
<mask id="mask1_16_186" style="mask-type:alpha" maskUnits="userSpaceOnUse" x="0" y="0" width="24" height="24">
<rect width="24" height="24" fill="#D9D9D9"/>
</mask>
<g mask="url(#mask1_16_186)">
<path d="M3.7334 4C4.69083 4 5.46758 4.77604 5.46777 5.7334C5.46777 6.69093 4.69095 7.46777 3.7334 7.46777C2.77603 7.46755 2 6.69079 2 5.7334C2.0002 4.77617 2.77615 4.00022 3.7334 4Z" fill="#8A8A8A"/>
<path d="M9.58496 4H23.0002" stroke="#8A8A8A" stroke-width="1.3" stroke-linecap="round"/>
<path d="M9.58496 6.57968H16.8085" stroke="#8A8A8A" stroke-width="1.3" stroke-linecap="round"/>
<path d="M3.7334 11.5845C4.69083 11.5845 5.46758 12.3606 5.46777 13.3179C5.46777 14.2755 4.69095 15.0523 3.7334 15.0523C2.77603 15.0521 2 14.2753 2 13.3179C2.0002 12.3607 2.77615 11.5848 3.7334 11.5845Z" fill="#8A8A8A"/>
<path d="M9.58496 11.5845H23.0002" stroke="#8A8A8A" stroke-width="1.3" stroke-linecap="round"/>
<path d="M9.58496 14.1641H16.8085" stroke="#8A8A8A" stroke-width="1.3" stroke-linecap="round"/>
<path d="M3.7334 19.1691C4.69083 19.1691 5.46758 19.9451 5.46777 20.9025C5.46777 21.86 4.69095 22.6369 3.7334 22.6369C2.77603 22.6367 2 21.8599 2 20.9025C2.0002 19.9453 2.77615 19.1693 3.7334 19.1691Z" fill="#8A8A8A"/>
<path d="M9.58496 19.1692H23.0002" stroke="#8A8A8A" stroke-width="1.3" stroke-linecap="round"/>
<path d="M9.58496 21.7489H16.8085" stroke="#8A8A8A" stroke-width="1.3" stroke-linecap="round"/>
</g>
</g>
</svg>
