<svg width="20" height="17" viewBox="0 0 20 17" fill="none" xmlns="http://www.w3.org/2000/svg">
<path d="M5.63867 12.5392C5.69401 12.5392 5.6944 12.5393 5.75098 12.5392C5.87649 12.5391 6.00242 12.54 6.12793 12.5402H7.13086C7.386 12.5404 7.64135 12.5411 7.89648 12.5412C8.32483 12.5413 8.7533 12.5408 9.18164 12.5412C9.62288 12.5415 10.0646 12.542 10.5059 12.5421H10.998C12.1304 12.5425 13.2632 12.5432 14.3955 12.5441C14.3982 13.0572 14.4001 13.571 14.4014 14.0841C14.402 14.3223 14.403 14.5608 14.4043 14.799C14.4056 15.0287 14.4059 15.2586 14.4062 15.4884C14.4065 15.5761 14.4066 15.6644 14.4072 15.7521C14.4081 15.8748 14.4083 15.9976 14.4082 16.1203C14.4086 16.1565 14.4097 16.1933 14.4102 16.2306C14.409 16.4604 14.3804 16.6363 14.2168 16.8117C14.0255 16.9579 13.9211 16.9998 13.6826 16.9992C13.5107 16.9733 13.3809 16.8932 13.2344 16.8029C13.1475 16.7528 13.0792 16.7261 12.9814 16.7081V16.629C12.933 16.6142 12.9322 16.6139 12.8828 16.5988C12.755 16.5538 12.6361 16.501 12.5137 16.4435C11.7305 16.0779 10.8993 15.8776 10.0352 15.8439C9.98596 15.8418 9.93643 15.8392 9.88574 15.8371C8.6595 15.8025 7.52846 16.1755 6.47949 16.7872C6.21139 16.941 6.02581 17.0281 5.71484 16.9826C5.51918 16.8847 5.38148 16.7473 5.2832 16.5509C5.27962 16.4982 5.27825 16.4446 5.27832 16.3917V16.0646C5.27835 15.9377 5.27899 15.8106 5.2793 15.6837C5.27937 15.5959 5.27926 15.5079 5.2793 15.4201C5.27945 15.1884 5.27984 14.9564 5.28027 14.7247C5.28067 14.4884 5.28105 14.2512 5.28125 14.0148C5.28167 13.551 5.28238 13.087 5.2832 12.6232C5.25729 12.6102 5.2308 12.5965 5.2041 12.5831C5.33787 12.5163 5.49153 12.5387 5.63867 12.5392ZM6.96191 0.00111389C7.20007 0.00156415 7.4386 0.00118859 7.67676 0.00111389C8.14894 0.000988894 8.62156 0.00132004 9.09375 0.00209045C9.55126 0.00283668 10.0093 0.00328613 10.4668 0.00306702H12.7549C13.0028 0.0029931 13.2511 0.00342366 13.499 0.00404358C13.5899 0.00420954 13.6816 0.00415314 13.7725 0.00404358C13.8967 0.00391773 14.0213 0.00454188 14.1455 0.00502014C14.1811 0.00487321 14.2172 0.0051726 14.2539 0.00502014C14.6484 0.00773399 14.9982 0.0573256 15.2988 0.329239C15.7156 0.842441 15.6179 1.54236 15.6152 2.17006C15.6147 2.28976 15.6144 2.40973 15.6143 2.52943C15.6138 2.7829 15.6131 3.03671 15.6123 3.29018C15.6114 3.58602 15.6108 3.88202 15.6104 4.17787C15.6101 4.29597 15.6099 4.41426 15.6094 4.53236C15.6092 4.60412 15.6085 4.67643 15.6084 4.74818C15.6082 4.78088 15.6086 4.81411 15.6084 4.84779C15.6042 5.0091 15.6045 5.00926 15.6523 5.16029C16.423 5.16837 16.4236 5.16881 17.1934 5.13197C17.2554 5.12718 17.3177 5.12386 17.3799 5.12123C17.3927 5.13407 17.4057 5.14707 17.4189 5.16029C17.4851 5.17111 17.5519 5.18174 17.6182 5.19154C18.2734 5.29268 18.8309 5.61994 19.2334 6.15248C19.5951 6.70106 19.6768 7.2877 19.6738 7.93471V12.8888C19.6768 13.6007 19.4978 14.2202 19.001 14.7423C18.5867 15.157 18.0511 15.4502 17.457 15.4601C17.3657 15.4601 17.274 15.4599 17.1826 15.4591C17.1343 15.459 17.0859 15.4583 17.0361 15.4581C16.8826 15.4577 16.7287 15.4572 16.5752 15.4562C16.4708 15.4558 16.3661 15.4555 16.2617 15.4552C16.0063 15.4544 15.7505 15.453 15.4951 15.4513C15.5013 15.4108 15.5073 15.37 15.5137 15.3283C15.5307 15.202 15.5418 15.0794 15.5469 14.9523C15.5485 14.9125 15.5501 14.8722 15.5518 14.8312C15.5541 14.7702 15.5543 14.7695 15.5566 14.7072C15.5583 14.6655 15.5598 14.6232 15.5615 14.5802C15.5657 14.4778 15.5694 14.375 15.5732 14.2726C15.5475 14.2597 15.5217 14.2468 15.4951 14.2335C15.508 14.1948 15.5209 14.1553 15.5342 14.1154C15.5188 14.0123 15.5189 14.0117 15.4951 13.9191H15.5342C15.5353 13.7851 15.5355 13.6508 15.5361 13.5167C15.5365 13.4788 15.5368 13.4406 15.5371 13.4015C15.5372 13.3649 15.538 13.3279 15.5381 13.2902C15.5383 13.2567 15.5389 13.2231 15.5391 13.1886C15.5348 13.0993 15.5187 13.0235 15.4951 12.9376C15.4903 12.8326 15.4934 12.7284 15.4951 12.6232H15.5732C15.5689 12.4982 15.5638 12.3731 15.5586 12.2482C15.5568 12.1956 15.5565 12.1945 15.5547 12.1408C15.5457 11.9361 15.5272 11.7555 15.4561 11.5626C15.3835 11.5051 15.3827 11.5053 15.2988 11.4845C15.26 11.4716 15.2206 11.4588 15.1807 11.4454C15.1206 11.4418 15.0602 11.4397 15 11.4396H14.7627C14.7193 11.4394 14.6756 11.4388 14.6309 11.4386C14.4842 11.4382 14.3371 11.4378 14.1904 11.4376C14.0857 11.4374 13.9807 11.4379 13.876 11.4376C13.5607 11.4369 13.2449 11.436 12.9297 11.4357C12.7813 11.4355 12.6327 11.4349 12.4844 11.4347C11.9913 11.434 11.498 11.434 11.0049 11.4337H10.5234C10.008 11.4334 9.49204 11.4321 8.97656 11.4308C8.44739 11.4295 7.91784 11.429 7.38867 11.4288C7.09156 11.4288 6.79418 11.4279 6.49707 11.4269C6.24418 11.426 5.99117 11.4255 5.73828 11.4259H4.93066C4.8899 11.4255 4.84864 11.4254 4.80664 11.4249C4.58054 11.427 4.43644 11.4426 4.26172 11.6017C4.18963 11.7077 4.17292 11.7913 4.17188 11.9181C4.17144 11.9493 4.17135 11.9807 4.1709 12.0128C4.17081 12.0467 4.17099 12.0814 4.1709 12.1163C4.17051 12.1521 4.17032 12.188 4.16992 12.2247C4.16871 12.3437 4.16766 12.4632 4.16699 12.5822C4.16626 12.6647 4.16584 12.7477 4.16504 12.8302C4.16302 13.0473 4.16064 13.2645 4.15918 13.4816C4.15761 13.7032 4.15627 13.925 4.1543 14.1466C4.1505 14.5815 4.14656 15.0165 4.14355 15.4513C3.83989 15.4553 3.53611 15.4582 3.23242 15.4601C3.12933 15.4609 3.02594 15.4617 2.92285 15.463C2.77386 15.465 2.62459 15.4662 2.47559 15.4669C2.43023 15.4677 2.38461 15.4681 2.33789 15.4689C1.71645 15.4691 1.18225 15.241 0.734375 14.8126C0.163531 14.2113 0.00814602 13.5796 0.00878906 12.7716C0.00855422 12.7124 0.00810761 12.6531 0.0078125 12.5939C0.00712315 12.4334 0.00688621 12.2719 0.00683594 12.1115C0.00677903 12.011 0.00606657 11.9101 0.00585938 11.8097C0.00513467 11.458 0.00482087 11.1058 0.00488281 10.754C0.00492897 10.4277 0.00417034 10.1009 0.00292969 9.77455C0.00189929 9.49314 0.00190312 9.21123 0.00195312 8.92982C0.00197256 8.76237 0.00181405 8.59435 0.000976562 8.4269C0.000211306 8.2692 0.000410773 8.11096 0.000976562 7.95326C0.0010551 7.89602 0.00047846 7.83863 0 7.78139C-0.00584111 7.03007 0.201593 6.36345 0.732422 5.81166C1.49154 5.12931 2.35181 5.15398 3.31641 5.15834C3.3931 5.15854 3.47018 5.15818 3.54688 5.15834C3.73266 5.15877 3.91871 5.15948 4.10449 5.16029C4.09502 5.10411 4.09467 5.10364 4.08496 5.04604C4.0599 4.86919 4.05948 4.69412 4.05957 4.51576C4.05944 4.47975 4.05971 4.44349 4.05957 4.40639C4.0592 4.28794 4.05864 4.16936 4.05859 4.05092C4.05847 3.96809 4.05873 3.88472 4.05859 3.8019C4.05836 3.62805 4.05759 3.45328 4.05762 3.27943C4.05762 3.0578 4.05732 2.83603 4.05664 2.6144C4.0562 2.44296 4.05662 2.27119 4.05664 2.09975C4.05659 2.01812 4.05597 1.93625 4.05566 1.85463C4.05167 0.674649 4.05179 0.674357 4.36719 0.337051C4.66503 0.047697 5.01133 -0.00313586 5.41504 0.000137329H6.20312C6.45602 -0.00023007 6.70902 0.000590649 6.96191 0.00111389ZM11.0117 6.20717C10.3334 5.83519 9.55979 5.7819 8.8457 6.09682V6.09779C8.83098 6.10438 8.81605 6.11093 8.80176 6.11732C8.78739 6.12373 8.77273 6.12965 8.75879 6.13588L8.75684 6.13686C8.7436 6.14295 8.73063 6.1495 8.71777 6.15541C8.70132 6.16295 8.68871 6.16838 8.67773 6.17397C8.66623 6.17985 8.65609 6.1863 8.64355 6.1935L8.60645 6.214L8.60352 6.21889L8.59082 6.22768C8.42572 6.3309 8.27482 6.44988 8.1377 6.59193L8.13672 6.59389C7.69347 7.06642 7.45738 7.67579 7.46777 8.32729L7.46875 8.33217C7.49855 8.93435 7.72517 9.51033 8.16797 9.93764L8.16895 9.93861C8.65083 10.3951 9.24851 10.644 9.91699 10.6281H9.91992C10.4875 10.6039 11.079 10.3804 11.4844 9.94936L11.4863 9.9474C11.4948 9.93796 11.5025 9.92729 11.5107 9.91811L11.5117 9.91908C11.642 9.77757 11.7754 9.62464 11.8828 9.44838L11.8857 9.44447C11.9714 9.29196 12.0684 9.095 12.1328 8.88881C12.1964 8.68502 12.2334 8.45567 12.1797 8.24525L12.1777 8.23744L12.1748 8.23061C12.1252 8.09705 12.0354 8.03066 11.9336 7.98354L11.9238 7.97963L11.915 7.9767L11.8193 7.9601C11.7282 7.95513 11.6483 7.98246 11.5791 8.01674L11.5625 8.02553L11.5479 8.03822C11.4937 8.08662 11.4526 8.13767 11.4248 8.19936C11.3981 8.25856 11.3867 8.32014 11.3789 8.38002V8.381C11.369 8.46185 11.3568 8.53842 11.3389 8.61342C11.2379 9.01212 10.9742 9.36195 10.624 9.57631C10.2225 9.79105 9.77447 9.84035 9.33984 9.70815C9.00374 9.58704 8.72823 9.37149 8.54102 9.07436L8.46582 8.94154C8.458 8.92516 8.45097 8.90866 8.44336 8.89272H8.44238C8.33311 8.66786 8.30815 8.45098 8.30762 8.18275C8.31203 7.83457 8.45137 7.47028 8.69336 7.22963L8.74121 7.1808H8.82324V7.09877C8.82535 7.09699 8.82803 7.09641 8.8291 7.09584L8.83594 7.089C8.85513 7.07068 8.87532 7.05237 8.89551 7.03432C9.20071 6.77491 9.62838 6.70002 10.0449 6.73354C10.3053 6.77087 10.5851 6.88225 10.7676 7.05385C10.7438 7.0786 10.7183 7.10414 10.6973 7.12904C10.6418 7.19478 10.583 7.28055 10.5605 7.3849L10.5576 7.39565V7.40736C10.5512 7.52914 10.5833 7.63007 10.6611 7.72475L10.6709 7.73744L10.6846 7.74721C10.741 7.79055 10.7975 7.81826 10.8594 7.83315C10.9173 7.84698 10.9752 7.84862 11.0283 7.84877H11.0312C11.0504 7.84848 11.0693 7.84807 11.0879 7.84779L11.0869 7.84682H11.208C11.2707 7.84611 11.3335 7.84611 11.3955 7.84584L11.3945 7.84486H11.5781C11.5973 7.84474 11.6162 7.84401 11.6348 7.84389H11.6885C11.7455 7.8433 11.8034 7.83879 11.8613 7.82045C11.9207 7.80152 11.9727 7.77019 12.0234 7.72865L12.041 7.714L12.0527 7.69545C12.1349 7.56795 12.1468 7.46155 12.1475 7.33607V7.33412C12.1472 7.31408 12.1467 7.294 12.1465 7.27455C12.1464 7.22288 12.1469 7.16991 12.1465 7.11732C12.1459 7.06301 12.1455 7.00898 12.1455 6.95522V6.82533L12.1445 6.76381V6.70326L12.1436 6.64857C12.1432 6.59775 12.1405 6.54272 12.1221 6.48744C12.1027 6.42937 12.0695 6.3807 12.0254 6.3351L12.0186 6.32729L12.0107 6.32143L11.9395 6.27553C11.8671 6.2367 11.7891 6.21917 11.6992 6.22475L11.6885 6.22572L11.6777 6.22768C11.5366 6.25945 11.4619 6.34776 11.4033 6.42201L11.4014 6.42494C11.3918 6.43779 11.3827 6.44838 11.376 6.45717C11.3729 6.45458 11.3693 6.45197 11.3662 6.44936H11.3672C11.2743 6.36957 11.178 6.29856 11.0674 6.23647L11.0654 6.23549L11.0127 6.20717H11.0117ZM5.68262 1.30092C5.50344 1.29366 5.50295 1.29393 5.36133 1.38979C5.35509 1.50935 5.35423 1.62576 5.35645 1.74525C5.35682 1.78191 5.35704 1.81882 5.35742 1.85658C5.35875 1.97849 5.36041 2.10089 5.3623 2.22279C5.36333 2.30705 5.36428 2.39146 5.36523 2.47572C5.36786 2.69819 5.37083 2.92123 5.37402 3.14369C5.37719 3.37043 5.38005 3.59761 5.38281 3.82436C5.3883 4.26963 5.39409 4.71503 5.40039 5.16029C5.44405 5.16009 5.48823 5.1605 5.5332 5.16029C6.99444 5.15403 6.99544 5.15403 7.51953 5.18178C7.96092 5.20466 8.40014 5.1956 8.8418 5.18373C9.65909 5.1623 10.4746 5.15995 11.292 5.17787C11.3373 5.17886 11.383 5.17979 11.4297 5.1808C11.6054 5.18465 11.7814 5.18855 11.957 5.19252C12.7438 5.20991 13.531 5.21697 14.3164 5.16029C14.2906 5.14741 14.2648 5.1345 14.2383 5.12123C14.264 5.10837 14.2899 5.09542 14.3164 5.08217C14.3175 4.93253 14.3187 4.7826 14.3193 4.63295C14.3197 4.59024 14.32 4.54707 14.3203 4.50307C14.3204 4.46253 14.3202 4.42178 14.3203 4.38002C14.3205 4.34245 14.3211 4.30447 14.3213 4.26576C14.3266 4.18002 14.3261 4.17986 14.2773 4.13979H14.3164V1.31166C13.187 1.30993 12.0571 1.30858 10.9277 1.30775C10.7947 1.30766 10.6614 1.30688 10.5283 1.30678C10.5019 1.30676 10.4754 1.3068 10.4482 1.30678C10.0183 1.30644 9.5881 1.30652 9.1582 1.3058C8.71749 1.30507 8.27665 1.30401 7.83594 1.30385C7.58822 1.30375 7.33951 1.30344 7.0918 1.30287C6.85909 1.30234 6.62626 1.30275 6.39355 1.30287C6.30803 1.30285 6.22224 1.30219 6.13672 1.3019C6.02017 1.30151 5.90268 1.30168 5.78613 1.3019C5.73509 1.30155 5.73478 1.30127 5.68262 1.30092Z" fill="#3B82F6"/>
</svg>
