<svg width="48" height="25" viewBox="0 0 48 25" fill="none" xmlns="http://www.w3.org/2000/svg">
<g clip-path="url(#clip0_16_118)">
<mask id="mask0_16_118" style="mask-type:luminance" maskUnits="userSpaceOnUse" x="-5" y="-16" width="58" height="57">
<path d="M52.1143 -15.7238H-4.11426V40.3374H52.1143V-15.7238Z" fill="white"/>
</mask>
<g mask="url(#mask0_16_118)">
<mask id="mask1_16_118" style="mask-type:luminance" maskUnits="userSpaceOnUse" x="-5" y="-16" width="58" height="57">
<path d="M52.1143 -15.7236H-4.11426V40.3376H52.1143V-15.7236Z" fill="white"/>
</mask>
<g mask="url(#mask1_16_118)">
<mask id="mask2_16_118" style="mask-type:luminance" maskUnits="userSpaceOnUse" x="6" y="0" width="11" height="24">
<path d="M9.53582 15.5993C9.53582 15.9547 9.53582 16.3102 9.53582 16.6667C9.55141 17.0488 9.53712 17.4316 9.49309 17.8115C9.48184 17.8787 9.46947 17.9471 9.45148 18.0133C9.36039 18.4046 9.16472 18.7768 8.80598 18.9843C8.35615 19.2422 7.71852 19.2556 7.22258 19.1312C6.54784 18.9607 6.26107 18.4113 6.16211 17.8003C6.16211 20.8915 8.99491 23.4064 12.3473 23.4681C12.4338 23.4176 12.5193 23.366 12.6025 23.3122C13.5951 22.6684 14.3631 21.7338 14.8011 20.637C15.2048 19.6357 15.342 18.5515 15.342 17.4774C15.342 16.4682 15.342 15.467 15.342 14.4635C15.342 12.7241 15.342 10.9858 15.342 9.24868C15.342 7.81464 15.3229 6.37947 15.4544 4.94767C15.5198 4.02508 15.67 3.11043 15.9031 2.21525C16.1112 1.47075 16.4058 0.682531 16.9557 0.112949C13.0704 1.62548 10.0599 7.83931 9.53358 15.5948" fill="white"/>
</mask>
<g mask="url(#mask2_16_118)">
<path d="M16.9574 0.117577H6.16602V23.4682H16.9574V0.117577Z" fill="url(#paint0_linear_16_118)"/>
</g>
<mask id="mask3_16_118" style="mask-type:luminance" maskUnits="userSpaceOnUse" x="0" y="6" width="13" height="19">
<path d="M0.336212 8.47555C0.336212 11.5623 0.336212 16.4721 0.336212 16.4721C0.336212 17.5115 0.319344 18.5475 0.549881 19.5701C0.80291 20.7081 1.33708 21.7968 2.18051 22.6176C3.02394 23.4383 4.11702 23.963 5.25846 24.24C6.53711 24.5377 7.85807 24.6105 9.16185 24.4552C10.274 24.3297 11.3806 24.0314 12.35 23.4686C8.99429 23.4024 6.16487 20.8897 6.16487 17.8008C6.13379 17.6106 6.11837 17.4182 6.11876 17.2256C6.11876 16.5013 6.11876 15.7758 6.11876 15.0515V6.18713C6.12173 6.14362 6.11909 6.0999 6.11089 6.05707L0.336212 8.47555Z" fill="white"/>
</mask>
<g mask="url(#mask3_16_118)">
<path d="M12.3529 6.05707H0.322266V24.5999H12.3529V6.05707Z" fill="url(#paint1_linear_16_118)"/>
</g>
<mask id="mask4_16_118" style="mask-type:luminance" maskUnits="userSpaceOnUse" x="-5" y="-16" width="58" height="57">
<path d="M52.1143 -15.7238H-4.11426V40.3374H52.1143V-15.7238Z" fill="white"/>
</mask>
<g mask="url(#mask4_16_118)">
<g style="mix-blend-mode:multiply">
<mask id="mask5_16_118" style="mask-type:luminance" maskUnits="userSpaceOnUse" x="6" y="18" width="8" height="6">
<path d="M13.5627 18.0228H6.1709V23.4686H13.5627V18.0228Z" fill="white"/>
</mask>
<g mask="url(#mask5_16_118)">
<mask id="mask6_16_118" style="mask-type:luminance" maskUnits="userSpaceOnUse" x="6" y="18" width="8" height="6">
<path d="M13.5641 22.5312C13.2761 22.8273 12.9559 23.0906 12.6094 23.316C12.5261 23.3698 12.4407 23.4214 12.3541 23.4719C9.07934 23.408 6.30277 21.0153 6.16895 18.0261C6.21843 18.173 8.00762 23.1837 13.5619 22.5345" fill="white"/>
</mask>
<g mask="url(#mask6_16_118)">
<path d="M9.77397 14.3357L3.44141 20.8124L9.96159 27.1496L16.2942 20.6729L9.77397 14.3357Z" fill="url(#paint2_linear_16_118)"/>
</g>
</g>
</g>
</g>
<mask id="mask7_16_118" style="mask-type:luminance" maskUnits="userSpaceOnUse" x="9" y="0" width="8" height="16">
<path d="M16.0726 0.236326C14.6196 0.56036 13.2027 1.17928 12.0612 2.14241C10.3317 3.6 9.53096 5.73033 9.53321 7.95708V9.83289C9.53321 11.499 9.53321 13.1655 9.53321 14.8324V15.6005C10.0584 7.84496 13.0689 1.63113 16.9554 0.118597C16.9655 0.106264 16.9779 0.0939298 16.9902 0.0815964C16.6811 0.114962 16.3743 0.167008 16.0715 0.237447" fill="white"/>
</mask>
<g mask="url(#mask7_16_118)">
<path d="M16.9917 0.0805817H9.53125V15.5995H16.9917V0.0805817Z" fill="url(#paint3_linear_16_118)"/>
</g>
<path d="M12.6909 7.62891C12.7318 7.62891 12.7714 7.62482 12.8098 7.61664C12.8491 7.60847 12.8879 7.59825 12.9263 7.58598V7.86438C12.8863 7.88237 12.8364 7.89709 12.7767 7.90854C12.7179 7.9208 12.6533 7.92693 12.5829 7.92693C12.5012 7.92693 12.4276 7.91385 12.3622 7.88769C12.2976 7.8607 12.2465 7.81451 12.2089 7.7491C12.1721 7.68287 12.1537 7.59089 12.1537 7.47315V6.8121H11.9746V6.65389L12.1807 6.5288L12.2886 6.23936H12.5278V6.53125H12.9116V6.8121H12.5278V7.47315C12.5278 7.52548 12.5425 7.56472 12.5719 7.59089C12.6022 7.61624 12.6418 7.62891 12.6909 7.62891Z" fill="white"/>
<path d="M13.7344 5.99407V6.38285C13.7344 6.45071 13.7319 6.51531 13.727 6.57663C13.7229 6.63795 13.7196 6.68128 13.7172 6.70663H13.7368C13.7662 6.65921 13.801 6.62078 13.8411 6.59135C13.8819 6.56191 13.9269 6.54024 13.976 6.52634C14.025 6.51244 14.0778 6.5055 14.1342 6.5055C14.2331 6.5055 14.3194 6.52307 14.3929 6.55823C14.4665 6.59257 14.5238 6.64694 14.5646 6.72135C14.6055 6.79493 14.626 6.8906 14.626 7.00833V7.9024H14.2519V7.10154C14.2519 7.00343 14.2339 6.92943 14.1979 6.87956C14.162 6.82968 14.1064 6.80474 14.0312 6.80474C13.9559 6.80474 13.8967 6.82232 13.8533 6.85748C13.81 6.89182 13.7793 6.94292 13.7613 7.01079C13.7433 7.07783 13.7344 7.16 13.7344 7.2573V7.9024H13.3603V5.99407H13.7344Z" fill="white"/>
<mask id="mask8_16_118" style="mask-type:luminance" maskUnits="userSpaceOnUse" x="-5" y="-16" width="58" height="57">
<path d="M52.1143 -15.7238H-4.11426V40.3374H52.1143V-15.7238Z" fill="white"/>
</mask>
<g mask="url(#mask8_16_118)">
<path d="M47.1844 15.9989C47.1835 16.3458 47.1124 16.6891 46.9753 17.008C46.8168 17.3597 46.5715 17.6656 46.2623 17.8971C45.8578 18.1914 45.3993 18.4036 44.9128 18.5216C44.2258 18.6907 43.5195 18.7688 42.8121 18.7537C42.2484 18.7586 41.685 18.7279 41.1252 18.6618C40.7207 18.6116 40.3195 18.5368 39.9242 18.4375C39.6579 18.3704 39.3952 18.29 39.137 18.1965C39.0016 18.1362 38.8573 18.0983 38.7097 18.0843C38.6497 18.0842 38.5919 18.1066 38.5477 18.1471C38.5005 18.1886 38.4521 18.2335 38.4004 18.285L38.2148 18.2391L39.3608 15.4887L39.5148 15.5661C39.4903 15.6726 39.4801 15.782 39.4845 15.8912C39.4845 15.9944 39.5801 16.1155 39.7713 16.2377C40.0096 16.3886 40.2652 16.5105 40.5326 16.601C40.8731 16.7249 41.2233 16.8209 41.5796 16.888C41.9723 16.964 42.3715 17.0016 42.7716 17.0001C43.5461 17.0001 44.1143 16.9101 44.4765 16.7299C44.8386 16.5494 45.0196 16.2881 45.0196 15.945C45.0196 15.76 44.8611 15.6289 44.5462 15.5515C44.1559 15.4617 43.7599 15.3992 43.3609 15.3643C42.8848 15.3194 42.3739 15.2682 41.8281 15.2106C41.3073 15.1602 40.793 15.0573 40.293 14.9034C39.8558 14.7737 39.4516 14.5519 39.1078 14.2531C38.7929 13.9706 38.6358 13.5819 38.6366 13.087C38.6318 12.7142 38.7249 12.3467 38.9065 12.0208C39.0945 11.6938 39.3544 11.4136 39.6667 11.2011C40.0289 10.9584 40.4296 10.7783 40.852 10.6686C41.3571 10.5351 41.878 10.4702 42.4005 10.4757C42.893 10.4739 43.385 10.5076 43.8726 10.5766C44.3269 10.6424 44.7299 10.7172 45.0815 10.8009C45.4323 10.8838 45.7259 10.9567 45.9643 11.0251C46.13 11.0795 46.3019 11.1131 46.4759 11.1249C46.5639 11.1295 46.6509 11.1059 46.7245 11.0576C46.7869 11.0098 46.8435 10.9549 46.8932 10.8939L47.0551 10.9612L45.9879 13.1072L45.8001 13.0153V12.8449C45.8001 12.7518 45.6989 12.6587 45.4987 12.559C45.2524 12.4467 44.9954 12.3592 44.7317 12.2977C44.3892 12.2139 44.0423 12.1491 43.6926 12.1037C43.3229 12.0536 42.9502 12.0277 42.5771 12.0264C41.9023 12.0264 41.4322 12.1034 41.1668 12.2573C40.8981 12.4121 40.7654 12.578 40.7654 12.7518C40.7655 12.838 40.7922 12.9222 40.8419 12.9928C40.8916 13.0634 40.9618 13.117 41.0431 13.1465C41.275 13.2468 41.5206 13.3118 41.7719 13.3393C42.0717 13.3812 42.4129 13.4144 42.7952 13.4391C43.1776 13.466 43.57 13.5041 43.9715 13.5512C44.3679 13.6024 44.7614 13.6747 45.1501 13.7676C45.5098 13.8523 45.8547 13.9902 46.1734 14.1769C46.4683 14.354 46.7175 14.5974 46.901 14.8877C47.0976 15.2219 47.1944 15.605 47.1799 15.9921" fill="#791416"/>
<path d="M36.7556 12.847C36.5061 12.3437 36.1487 11.9013 35.7086 11.5509C35.253 11.191 34.7328 10.9209 34.1759 10.7548C32.957 10.393 31.6589 10.393 30.44 10.7548C29.8829 10.9204 29.3626 11.1906 28.9072 11.5509C28.4666 11.9006 28.1091 12.3433 27.8603 12.847C27.6048 13.4108 27.4727 14.0223 27.4727 14.641C27.4727 15.2596 27.6048 15.8712 27.8603 16.4349C28.1091 16.939 28.4666 17.382 28.9072 17.7322C29.3606 18.0905 29.882 18.3536 30.44 18.5058C31.6635 18.8348 32.9524 18.8348 34.1759 18.5058C34.7337 18.3532 35.255 18.0901 35.7086 17.7322C36.1487 17.3814 36.5061 16.9386 36.7556 16.4349C37.0111 15.8712 37.1432 15.2596 37.1432 14.641C37.1432 14.0223 37.0111 13.4108 36.7556 12.847ZM34.6414 15.6064C34.507 15.8799 34.3152 16.1216 34.0791 16.315C33.8398 16.5094 33.567 16.6587 33.274 16.7556C32.644 16.9604 31.9651 16.9604 31.3352 16.7556C31.0423 16.6585 30.7695 16.5092 30.53 16.315C30.2942 16.1213 30.1025 15.8797 29.9677 15.6064C29.8298 15.3027 29.7585 14.9732 29.7585 14.6399C29.7585 14.3065 29.8298 13.977 29.9677 13.6734C30.1025 13.3997 30.2942 13.1578 30.53 12.9636C30.7695 12.7698 31.0424 12.6209 31.3352 12.5241C31.9644 12.3148 32.6447 12.3148 33.274 12.5241C33.5669 12.6206 33.8398 12.7696 34.0791 12.9636C34.3152 13.1575 34.5069 13.3995 34.6414 13.6734C34.7786 13.9772 34.8496 14.3066 34.8496 14.6399C34.8496 14.9731 34.7786 15.3025 34.6414 15.6064Z" fill="#791416"/>
<path d="M20.7717 18.4173C20.7483 18.394 20.7301 18.3661 20.7181 18.3355C20.7061 18.3048 20.7006 18.272 20.7019 18.2391V15.7208H23.4909C23.9288 15.7287 24.3646 15.6581 24.7774 15.5122C25.1216 15.3886 25.4377 15.1981 25.7074 14.9516C25.9523 14.724 26.1426 14.4442 26.2641 14.1331C26.3883 13.8209 26.4517 13.4879 26.4507 13.1521C26.4517 12.8162 26.3883 12.4832 26.2641 12.171C26.1413 11.8583 25.9513 11.5762 25.7074 11.3446C25.4386 11.097 25.1222 10.9063 24.7774 10.784C24.3646 10.6382 23.9288 10.5675 23.4909 10.5755H17.9434V10.7605C18.1402 10.7818 18.2616 10.8143 18.3077 10.8614C18.3308 10.8847 18.3489 10.9124 18.3609 10.9428C18.3728 10.9733 18.3785 11.0059 18.3774 11.0386V18.2379C18.3785 18.2708 18.3729 18.3036 18.3609 18.3342C18.3489 18.3648 18.3308 18.3927 18.3077 18.4162C18.2616 18.4622 18.1402 18.4958 17.9434 18.516V18.6976H21.136V18.5126C20.9392 18.4925 20.8178 18.4588 20.7717 18.4128M20.7019 12.3022H23.0568C23.4909 12.3022 23.8087 12.3691 24.0104 12.5029C24.2121 12.6367 24.3126 12.8531 24.3118 13.1521C24.3118 13.4817 24.2113 13.7187 24.0104 13.8629C23.8095 14.0072 23.4916 14.0793 23.0568 14.0793H20.7019V12.3022Z" fill="#791416"/>
<path d="M47.6643 8.52703H22.1973V9.054H47.6643V8.52703Z" fill="#791416"/>
<path d="M42.5002 20.1791H17.0332V20.7061H42.5002V20.1791Z" fill="#791416"/>
</g>
</g>
</g>
</g>
<defs>
<linearGradient id="paint0_linear_16_118" x1="6.16602" y1="11.84" x2="16.9574" y2="11.84" gradientUnits="userSpaceOnUse">
<stop stop-color="#ED2024"/>
<stop offset="1" stop-color="#231F20"/>
</linearGradient>
<linearGradient id="paint1_linear_16_118" x1="0.334636" y1="15.1536" x2="12.3529" y2="15.1536" gradientUnits="userSpaceOnUse">
<stop stop-color="#ED2024"/>
<stop offset="1" stop-color="#231F20"/>
</linearGradient>
<linearGradient id="paint2_linear_16_118" x1="10.1429" y1="20.6413" x2="7.15411" y2="23.7163" gradientUnits="userSpaceOnUse">
<stop stop-color="white"/>
<stop offset="0.12" stop-color="#ECECEC"/>
<stop offset="0.36" stop-color="#BAB9B9"/>
<stop offset="0.71" stop-color="#6C696A"/>
<stop offset="1" stop-color="#231F20"/>
</linearGradient>
<linearGradient id="paint3_linear_16_118" x1="9.5335" y1="8.05249" x2="16.9917" y2="8.05249" gradientUnits="userSpaceOnUse">
<stop stop-color="#ED2024"/>
<stop offset="1" stop-color="#231F20"/>
</linearGradient>
<clipPath id="clip0_16_118">
<rect width="48" height="24.6122" fill="white"/>
</clipPath>
</defs>
</svg>
